<svg xmlns="http://www.w3.org/2000/svg" width="960" height="540" viewBox="0 0 960 540"><rect width="960" height="540" fill="#dff4ff"/><circle cx="492" cy="291" r="211" fill="#b8e2f6" opacity=".55"/><circle cx="88" cy="75" r="113" fill="white" opacity=".4"/><circle cx="917" cy="505" r="150" fill="white" opacity=".35"/><ellipse cx="483" cy="455" rx="255" ry="20" fill="#b8e2f6" opacity=".6"/><g transform="translate(275 125)"><rect x="26" y="192" width="350" height="117" rx="10" fill="#b3d6e9"/><rect x="65" y="116" width="274" height="115" rx="9" fill="#90c0d9"/><g fill="#eaf8ff"><rect x="92" y="146" width="44" height="65" rx="19"/><rect x="180" y="143" width="44" height="88" rx="20"/><rect x="267" y="146" width="44" height="65" rx="19"/></g><path d="M8 114Q86 115 107 65H297Q323 114 401 114L363 145H45Z" fill="#346482"/><path d="M42 48Q128 49 143 9H262Q284 49 368 48L335 75H75Z" fill="#4d819f"/><path d="M0 231Q64 230 78 209H322Q346 230 411 231L374 260H37Z" fill="#346482"/><rect x="7" y="304" width="388" height="22" rx="8" fill="#80b3d0"/></g><g transform="translate(179 250) rotate(-12)"><rect width="131" height="116" rx="16" fill="#fff3d6"/><path d="M29 35h72M29 57h72M29 79h41" stroke="#d4b271" stroke-width="8" stroke-linecap="round"/></g><g transform="translate(671 125) rotate(10)"><rect width="107" height="92" rx="25" fill="white"/><path d="M28 54h52v17H28Z" fill="#7eaac4"/><path d="M32 54V40q22-32 44 0v14Z" fill="#467b9b"/></g><g fill="white"><path d="M788 81l7 22 22 7-22 7-7 22-7-22-22-7 22-7Z"/><circle cx="163" cy="350" r="9"/><circle cx="788" cy="383" r="7"/></g></svg>